<svg width="106" height="27" viewBox="0 0 106 27" fill="none" xmlns="http://www.w3.org/2000/svg">
<circle cx="9.59671" cy="17.0124" r="9.59671" fill="#7B75D7"/>
<g style="mix-blend-mode:luminosity">
<circle cx="14.8313" cy="10.9053" r="9.3786" stroke="white" stroke-width="3.0535"/>
</g>
<path d="M50.0351 15.6024C49.8787 16.9407 49.3834 17.9749 48.5491 18.7048C47.7206 19.429 46.617 19.7911 45.2381 19.7911C43.7434 19.7911 42.5442 19.2552 41.6404 18.1834C40.7424 17.1116 40.2934 15.6778 40.2934 13.8818V12.6651C40.2934 11.4891 40.502 10.4549 40.9191 9.56275C41.342 8.67055 41.9388 7.98692 42.7093 7.51186C43.4798 7.031 44.372 6.79057 45.3859 6.79057C46.73 6.79057 47.8075 7.16715 48.6186 7.9203C49.4297 8.66766 49.9019 9.70469 50.0351 11.0314H48.3579C48.2131 10.0233 47.8973 9.29335 47.4107 8.84146C46.9298 8.38957 46.2549 8.16362 45.3859 8.16362C44.3199 8.16362 43.4827 8.55758 42.8744 9.34549C42.2719 10.1334 41.9706 11.2544 41.9706 12.7086V13.9339C41.9706 15.307 42.2574 16.399 42.831 17.2101C43.4045 18.0212 44.2069 18.4268 45.2381 18.4268C46.1651 18.4268 46.8748 18.2182 47.3672 17.8011C47.8655 17.3781 48.1957 16.6453 48.3579 15.6024H50.0351ZM57.8737 19.6173C57.781 19.4319 57.7057 19.1017 57.6477 18.6266C56.9004 19.403 56.0082 19.7911 54.9712 19.7911C54.0442 19.7911 53.2824 19.5304 52.6856 19.009C52.0947 18.4818 51.7992 17.8155 51.7992 17.0102C51.7992 16.0312 52.17 15.2722 52.9116 14.7334C53.6589 14.1888 54.7076 13.9165 56.0574 13.9165H57.6217V13.1779C57.6217 12.6159 57.4537 12.1698 57.1176 11.8396C56.7816 11.5036 56.2863 11.3355 55.6316 11.3355C55.0581 11.3355 54.5772 11.4804 54.189 11.7701C53.8009 12.0597 53.6068 12.4102 53.6068 12.8216H51.9904C51.9904 12.3523 52.1555 11.9004 52.4858 11.4659C52.8218 11.0256 53.2737 10.678 53.8414 10.4231C54.415 10.1682 55.0436 10.0407 55.7272 10.0407C56.8106 10.0407 57.6593 10.313 58.2734 10.8576C58.8875 11.3964 59.2062 12.1408 59.2294 13.091V17.4187C59.2294 18.2819 59.3394 18.9684 59.5596 19.4783V19.6173H57.8737ZM55.2058 18.392C55.7098 18.392 56.1878 18.2616 56.6397 18.0009C57.0916 17.7402 57.4189 17.4013 57.6217 16.9842V15.055H56.3616C54.3918 15.055 53.4069 15.6314 53.4069 16.7843C53.4069 17.2883 53.5749 17.6823 53.911 17.9662C54.247 18.2501 54.6786 18.392 55.2058 18.392ZM67.2243 17.1232C67.2243 16.6887 67.0592 16.3527 66.729 16.1152C66.4046 15.8718 65.8339 15.6633 65.017 15.4895C64.2059 15.3157 63.56 15.1071 63.0791 14.8638C62.6041 14.6204 62.2507 14.3308 62.0189 13.9947C61.793 13.6587 61.68 13.259 61.68 12.7955C61.68 12.025 62.0044 11.3732 62.6533 10.8402C63.308 10.3072 64.1422 10.0407 65.1561 10.0407C66.2221 10.0407 67.0853 10.3159 67.7458 10.8663C68.412 11.4167 68.7451 12.1206 68.7451 12.978H67.1288C67.1288 12.5377 66.9405 12.1582 66.5639 11.8396C66.1931 11.5209 65.7238 11.3616 65.1561 11.3616C64.5709 11.3616 64.1133 11.4891 63.783 11.744C63.4528 11.9989 63.2877 12.332 63.2877 12.7434C63.2877 13.1315 63.4412 13.4241 63.7483 13.6211C64.0553 13.818 64.6086 14.0063 65.4081 14.1859C66.2134 14.3655 66.8652 14.5799 67.3634 14.829C67.8616 15.0781 68.2295 15.3794 68.467 15.7328C68.7104 16.0804 68.832 16.5062 68.832 17.0102C68.832 17.8503 68.496 18.5252 67.824 19.0351C67.1519 19.5391 66.28 19.7911 65.2082 19.7911C64.4551 19.7911 63.7888 19.6579 63.2095 19.3914C62.6301 19.1249 62.1753 18.7541 61.8451 18.279C61.5207 17.7982 61.3585 17.2796 61.3585 16.7235H62.9661C62.9951 17.2623 63.2095 17.691 63.6092 18.0096C64.0148 18.3225 64.5478 18.4789 65.2082 18.4789C65.8165 18.4789 66.3032 18.3572 66.6682 18.1139C67.039 17.8648 67.2243 17.5346 67.2243 17.1232ZM72.5341 11.3529C73.2467 10.4781 74.1736 10.0407 75.3149 10.0407C77.3021 10.0407 78.3044 11.1617 78.3217 13.4038V19.6173H76.714V13.3951C76.7083 12.7173 76.5518 12.2162 76.2448 11.8917C75.9435 11.5673 75.4713 11.4051 74.8283 11.4051C74.3069 11.4051 73.8492 11.5441 73.4552 11.8222C73.0613 12.1003 72.7542 12.4653 72.5341 12.9172V19.6173H70.9264V6.26916H72.5341V11.3529ZM80.3031 14.829C80.3031 13.9078 80.4827 13.0794 80.8419 12.3436C81.2069 11.6078 81.7109 11.0401 82.354 10.6403C83.0029 10.2406 83.7415 10.0407 84.57 10.0407C85.8503 10.0407 86.8845 10.4839 87.6724 11.3703C88.4661 12.2567 88.8629 13.4357 88.8629 14.9072V15.0202C88.8629 15.9356 88.6862 16.7582 88.3328 17.4882C87.9852 18.2124 87.4841 18.7773 86.8294 19.1828C86.1806 19.5883 85.4332 19.7911 84.5874 19.7911C83.3128 19.7911 82.2787 19.3479 81.485 18.4615C80.6971 17.5751 80.3031 16.4019 80.3031 14.942V14.829ZM81.9195 15.0202C81.9195 16.063 82.1599 16.9002 82.6408 17.5317C83.1274 18.1631 83.7763 18.4789 84.5874 18.4789C85.4042 18.4789 86.0531 18.1603 86.534 17.523C87.0148 16.8799 87.2553 15.9819 87.2553 14.829C87.2553 13.7978 87.009 12.9635 86.5166 12.3262C86.0299 11.6832 85.3811 11.3616 84.57 11.3616C83.7763 11.3616 83.1361 11.6774 82.6495 12.3088C82.1628 12.9403 81.9195 13.8441 81.9195 15.0202ZM96.6841 18.6875C96.0584 19.4232 95.1402 19.7911 93.9293 19.7911C92.9271 19.7911 92.1623 19.5014 91.6351 18.9221C91.1137 18.337 90.8501 17.4737 90.8443 16.3324V10.2145H92.452V16.289C92.452 17.7142 93.0313 18.4268 94.19 18.4268C95.4183 18.4268 96.2351 17.9691 96.6407 17.0537V10.2145H98.2484V19.6173H96.7189L96.6841 18.6875ZM102.88 7.93768V10.2145H104.636V11.4572H102.88V17.2883C102.88 17.6649 102.958 17.9488 103.115 18.14C103.271 18.3254 103.538 18.4181 103.914 18.4181C104.1 18.4181 104.355 18.3833 104.679 18.3138V19.6173C104.256 19.7332 103.845 19.7911 103.445 19.7911C102.727 19.7911 102.185 19.5739 101.82 19.1393C101.455 18.7048 101.273 18.0878 101.273 17.2883V11.4572H99.5606V10.2145H101.273V7.93768H102.88Z" fill="white"/>
</svg>
